# xmcd
#
# Track frame offsets: 
#        150
#        18032
#        41212
#        63735
#        98780
#        114783
#        126932
#        141589
#        165356
#        183883
#        200748
#        219768
#        241990
#        260713
#
# Disc length: 3781 seconds
#
# Revision: 0
# Processed by: cddbd v1.5.2PL0 Copyright (c) Steve Scherf et al.
# Submitted via: ExactAudioCopy v1.0b4
#
DISCID=c60ec30e
DTITLE=The Roy Mette Band - Vibralism
DYEAR=2014
DGENRE=Blues Rock
TTITLE0=Like A Ball And Chain
TTITLE1=Just Because
TTITLE2=Love In The First Degree
TTITLE3=Heartbreak Time
TTITLE4=Vibralism
TTITLE5=The Drop Below (Song For John)
TTITLE6=Paranoia
TTITLE7=Big Daddy C
TTITLE8=Honey Trap
TTITLE9=Big In That
TTITLE10=Electric Grass
TTITLE11=Easy Money
TTITLE12=Blue Surf Shadows
TTITLE13=White Men Sing The Greens
EXTD=
EXTT0=
EXTT1=
EXTT2=
EXTT3=
EXTT4=
EXTT5=
EXTT6=
EXTT7=
EXTT8=
EXTT9=
EXTT10=
EXTT11=
EXTT12=
EXTT13=
PLAYORDER=
